<svg width="121" height="202" viewBox="0 0 121 202" fill="none" xmlns="http://www.w3.org/2000/svg">
<rect width="121" height="202" fill="#B8252B"/>
<path d="M92.9673 178.025C92.5337 178.025 92.1178 177.853 91.8111 177.546C91.5045 177.239 91.3323 176.823 91.3323 176.39V172.513H100.234V169.206H91.3323V164.112H101.627V160.478H87.2204V177.952C87.2204 178.927 87.6077 179.863 88.297 180.552C88.9864 181.242 89.9214 181.629 90.8962 181.629H101.906V178.025H92.9673ZM71.524 164.094H76.4958C76.8637 164.097 77.2262 164.184 77.5555 164.348C77.9077 164.521 78.2209 164.765 78.476 165.063C78.7534 165.383 78.9709 165.75 79.1179 166.147C79.2812 166.587 79.3632 167.053 79.3601 167.522C79.3617 167.977 79.2901 168.429 79.1482 168.861C79.0236 169.252 78.8331 169.618 78.585 169.945C78.3549 170.244 78.0665 170.493 77.7372 170.678C77.4125 170.856 77.0476 170.947 76.6774 170.944H71.524V164.094ZM71.524 181.659V174.536H73.474C74.1172 174.539 74.7488 174.708 75.3078 175.026C75.8668 175.345 76.3343 175.802 76.6653 176.353L79.893 181.647H84.5135L79.6689 173.694C80.8309 173.203 81.8065 172.354 82.4546 171.271C83.1389 170.146 83.4935 168.851 83.478 167.534C83.4729 166.66 83.3024 165.795 82.9754 164.984C82.644 164.152 82.1684 163.385 81.5704 162.719C80.9715 162.052 80.2498 161.507 79.4449 161.114C78.6066 160.703 77.6834 160.496 76.7501 160.508H67.4122V181.659H71.524ZM63.0036 160.508H58.8979V181.659H63.0036V160.508ZM44.4489 164.142H49.0392C49.4022 164.142 49.7611 164.219 50.0928 164.366C50.4444 164.516 50.7556 164.746 51.0012 165.039C51.2648 165.362 51.4697 165.729 51.6068 166.123C51.7799 166.566 51.8762 167.035 51.8914 167.51C51.9382 168.407 51.6705 169.291 51.1344 170.011C50.912 170.302 50.6247 170.536 50.2957 170.696C49.9666 170.856 49.6048 170.937 49.239 170.932H44.4489V164.142ZM44.4489 181.708V174.536H49.4691C50.3962 174.544 51.3125 174.337 52.1457 173.93C52.94 173.55 53.6487 173.012 54.2289 172.35C54.8104 171.689 55.2661 170.927 55.5733 170.102C55.8881 169.27 56.0502 168.388 56.0517 167.498C56.0392 166.628 55.8604 165.769 55.5248 164.966C55.1934 164.135 54.7201 163.369 54.126 162.701C53.5235 162.035 52.8001 161.491 51.9943 161.096C51.1563 160.684 50.233 160.477 49.2996 160.49H40.3432V181.641L44.4489 181.708ZM34.6811 161.677C34.2232 161.402 33.733 161.184 33.2216 161.029C31.9068 160.541 30.5122 160.302 29.1098 160.326C28.0842 160.316 27.063 160.463 26.082 160.762C25.1896 161.025 24.3552 161.454 23.6233 162.028C22.9142 162.581 22.3474 163.296 21.9701 164.112C21.5553 165.007 21.3483 165.984 21.3646 166.971C21.3477 167.69 21.4754 168.404 21.74 169.073C21.992 169.666 22.3726 170.195 22.8543 170.623C23.4118 171.104 24.0411 171.494 24.7194 171.78C25.5726 172.151 26.4533 172.455 27.3537 172.689L29.6185 173.349C30.2119 173.516 30.7895 173.735 31.3444 174.003C31.7679 174.199 32.144 174.484 32.4465 174.839C32.7097 175.166 32.8472 175.576 32.8341 175.996C32.8341 177.45 31.7017 178.17 29.4368 178.17C28.6342 178.172 27.8345 178.073 27.0569 177.874C26.3325 177.694 25.6253 177.451 24.9435 177.147C24.3746 176.893 23.8225 176.604 23.2903 176.281C22.9418 176.084 22.6168 175.848 22.3214 175.578V180.157C23.0479 180.609 23.8407 180.944 24.671 181.15C26.1946 181.624 27.7808 181.865 29.3763 181.865C30.3752 181.868 31.3711 181.754 32.3436 181.526C33.2365 181.318 34.0841 180.948 34.8446 180.436C35.5726 179.939 36.1657 179.268 36.5704 178.485C37.0212 177.584 37.2418 176.585 37.2124 175.578C37.2342 174.745 37.0708 173.917 36.7339 173.155C36.4173 172.49 35.9559 171.904 35.3835 171.441C34.737 170.924 34.011 170.515 33.2337 170.23C32.39 169.915 31.4534 169.618 30.4239 169.339C29.6245 169.139 28.9281 168.952 28.3226 168.77C27.7997 168.622 27.2942 168.419 26.8147 168.164C26.4702 167.973 26.1724 167.709 25.9427 167.389C25.7221 167.072 25.6115 166.691 25.6278 166.305C25.6121 165.966 25.6802 165.628 25.8259 165.322C25.9717 165.015 26.1906 164.75 26.4635 164.548C27.2214 164.082 28.1081 163.87 28.9948 163.942C29.6262 163.944 30.255 164.025 30.866 164.185C31.4528 164.34 32.0259 164.542 32.5797 164.79C33.0463 164.985 33.496 165.218 33.9241 165.487C34.1923 165.655 34.4455 165.845 34.6811 166.056V161.677ZM32.4102 47.9987C32.4102 47.9987 33.4336 68.3321 106.562 140.895V135.287C106.562 135.287 43.9645 47.4596 51.0194 15C37.2245 34.9155 32.4102 47.9987 32.4102 47.9987ZM16.9015 86.6183C16.9015 86.6183 42.3355 124.778 106.562 151.283V145.583C106.562 145.583 30.9447 95.395 26.1183 57.9443C19.3904 70.3794 16.9015 86.6183 16.9015 86.6183ZM106.562 156.274V187.292H15V106.819C30.654 136.958 106.562 156.268 106.562 156.268" fill="white"/>
</svg>
